<?xml version="1.0" encoding="UTF-8" standalone="no"?>
<svg width="156px" height="35px" viewBox="0 0 156 35" version="1.1" xmlns="http://www.w3.org/2000/svg" xmlns:xlink="http://www.w3.org/1999/xlink">
    <!-- Generator: Sketch 3.8.3 (29802) - http://www.bohemiancoding.com/sketch -->
    <title>Group 2</title>
    <desc>Created with Sketch.</desc>
    <defs></defs>
    <g id="Page-1" stroke="none" stroke-width="1" fill="none" fill-rule="evenodd">
        <g id="Карточка-товаров+выбор-любого-товара-(категория-товаров)" transform="translate(-562.000000, -17.000000)">
            <g id="menu">
                <g id="Group-2" transform="translate(565.000000, 22.000000)">
                    <g id="1466381793_Icon_Element_Water_02" transform="translate(27.075560, 0.560074)" stroke-width="2" stroke="#005cb2">
                        <g id="Calque_1">
                            <g id="Group">
                                <path d="M15.7841488,16.6868382 C15.7841488,20.76109 12.3545779,24.0644669 8.12266791,24.0644669 C3.89075793,24.0644669 0.461187034,20.7619591 0.461187034,16.6868382" id="Shape"></path>
                                <path d="M0.66515625,12.9350155 C1.87904384,8.32280257 8.12266791,0.019602605 8.12266791,0.019602605 C8.12266791,0.019602605 14.2877729,8.21764377 15.5567141,12.8472383" id="Shape"></path>
                            </g>
                        </g>
                    </g>
                    <path d="M9.03047476,14.5267352 L4.55666158,14.5267352 L4.55666158,23.40311 L0.542921379,23.40311 L0.542921379,0.365673594 L8.66558929,0.365673594 C11.330853,0.365673594 13.3879404,0.961645272 14.8369132,2.15360651 C16.2858859,3.34556774 17.0103614,5.07019374 17.0103614,7.32753626 C17.0103614,8.86759237 16.6375474,10.1571063 15.8919081,11.1961168 C15.1462688,12.2351272 14.1071489,13.0341512 12.774517,13.5932127 L17.9622365,23.1974187 L17.9622365,23.40311 L13.6629338,23.40311 L9.03047476,14.5267352 Z M4.55666158,11.3147849 L8.68145388,11.3147849 C10.0352386,11.3147849 11.0928671,10.9746064 11.854371,10.2942391 C12.615875,9.61387185 12.9966212,8.68299573 12.9966212,7.50158283 C12.9966212,6.26742827 12.6449597,5.31281877 11.9416262,4.63772568 C11.2382928,3.9626326 10.1885965,3.61454294 8.79250598,3.59344628 L4.55666158,3.59344628 L4.55666158,11.3147849 Z M66.1535599,17.4697044 C66.1535599,16.4570647 65.7966103,15.6765001 65.0827004,15.1279869 C64.3687904,14.5794738 63.0811278,14.0256948 61.2196737,13.4666333 C59.3582197,12.9075719 57.8775398,12.2852298 56.7775897,11.5995883 C54.6728775,10.2810472 53.6205371,8.56169524 53.6205371,6.44148101 C53.6205371,4.58497502 54.3793856,3.05549018 55.8971052,1.85298062 C57.4148248,0.650471055 59.3846579,0.0492252916 61.8066634,0.0492252916 C63.4142828,0.0492252916 64.8473694,0.344574087 66.1059661,0.93528054 C67.3645629,1.52598699 68.3534455,2.36720365 69.0726437,3.45895576 C69.7918418,4.55070786 70.1514355,5.76111051 70.1514355,7.09020003 L66.1535599,7.09020003 C66.1535599,5.88769047 65.7754577,4.94626618 65.019242,4.26589893 C64.2630263,3.58553167 63.1816012,3.24535315 61.7749342,3.24535315 C60.4634552,3.24535315 59.4454878,3.52487969 58.7210015,4.08394115 C57.9965151,4.64300262 57.6342773,5.42356729 57.6342773,6.4256586 C57.6342773,7.26952496 58.0255999,7.97361539 58.8082567,8.53795102 C59.5909135,9.10228665 60.8812202,9.65079155 62.6792156,10.1834822 C64.477211,10.7161728 65.9208739,11.3226927 67.0102475,12.0030599 C68.0996212,12.6834272 68.8981307,13.4639919 69.4058,14.3447774 C69.9134693,15.2255629 70.1673001,16.2566466 70.1673001,17.4380595 C70.1673001,19.3578555 69.4296042,20.8847033 67.9541904,22.0186487 C66.4787765,23.1525941 64.4772146,23.7195584 61.9494447,23.7195584 C60.2783666,23.7195584 58.7421613,23.4110243 57.3407825,22.7939471 C55.9394038,22.1768698 54.8500464,21.325105 54.0726778,20.238627 C53.2953093,19.1521491 52.9066308,17.8863685 52.9066308,16.4412474 L56.920371,16.4412474 C56.920371,17.7492402 57.3539987,18.7618647 58.221267,19.4791511 C59.0885354,20.1964375 60.3312488,20.5550753 61.9494447,20.5550753 C63.3455352,20.5550753 64.3952315,20.2729117 65.0985649,19.7085761 C65.8018984,19.1442405 66.1535599,18.3979574 66.1535599,17.4697044 L66.1535599,17.4697044 Z M95.7938943,3.59344628 L88.5913724,3.59344628 L88.5913724,23.40311 L84.6093613,23.40311 L84.6093613,3.59344628 L77.4702977,3.59344628 L77.4702977,0.365673594 L95.7938943,0.365673594 L95.7938943,3.59344628 Z M122.229582,12.4856436 C122.229582,14.7429861 121.83826,16.7234053 121.055603,18.4269605 C120.272946,20.1305157 119.154504,21.4384889 117.700243,22.3509194 C116.245982,23.2633499 114.572285,23.7195584 112.679102,23.7195584 C110.807071,23.7195584 109.138662,23.2633499 107.673825,22.3509194 C106.208988,21.4384889 105.077325,20.1384268 104.278804,18.4506941 C103.480282,16.7629614 103.075739,14.8168238 103.065163,12.6122229 L103.065163,11.3147849 C103.065163,9.06799069 103.464418,7.08493449 104.262939,5.36555678 C105.06146,3.64617907 106.187835,2.3302947 107.642096,1.4178642 C109.096357,0.505433699 110.764766,0.0492252916 112.647373,0.0492252916 C114.529979,0.0492252916 116.198388,0.500159614 117.652649,1.40204179 C119.10691,2.30392396 120.230641,3.60134903 121.023874,5.29435591 C121.817107,6.9873628 122.219006,8.95723379 122.229582,11.204028 L122.229582,12.4856436 Z M118.215842,11.28314 C118.215842,8.73044431 117.731977,6.77375853 116.764233,5.41302403 C115.796488,4.05228952 114.424215,3.37193247 112.647373,3.37193247 C110.912836,3.37193247 109.556427,4.04965248 108.578106,5.40511282 C107.599785,6.76057316 107.100056,8.67770329 107.078903,11.1565607 L107.078903,12.4856436 C107.078903,15.0172427 107.573344,16.9739285 108.562242,18.3557596 C109.551139,19.7375908 110.923412,20.428496 112.679102,20.428496 C114.455944,20.428496 115.822929,19.753413 116.780097,18.4032269 C117.737265,17.0530407 118.215842,15.0805327 118.215842,12.4856436 L118.215842,11.28314 Z M138.273967,13.4508109 L135.65631,16.2197336 L135.65631,23.40311 L131.64257,23.40311 L131.64257,0.365673594 L135.65631,0.365673594 L135.65631,11.1723831 L137.877352,8.43510532 L144.635666,0.365673594 L149.490229,0.365673594 L140.907488,10.5711314 L149.982031,23.40311 L145.222655,23.40311 L138.273967,13.4508109 Z" id="ROSTOK" fill="#59D9A0"></path>
                </g>
            </g>
        </g>
    </g>
</svg>