<?xml version="1.0" encoding="UTF-8" standalone="no"?>
<svg width="21px" height="27px" viewBox="0 0 21 27" version="1.1" xmlns="http://www.w3.org/2000/svg" xmlns:xlink="http://www.w3.org/1999/xlink">
    <!-- Generator: Sketch 3.8.3 (29802) - http://www.bohemiancoding.com/sketch -->
    <title>shopping-bag</title>
    <desc>Created with Sketch.</desc>
    <defs></defs>
    <g id="Page-1" stroke="none" stroke-width="1" fill="none" fill-rule="evenodd">
        <g id="Главная" transform="translate(-1210.000000, -21.000000)" fill="#000000" stroke="#000000">
            <g id="menu">
                <g id="shopping-bag" transform="translate(1211.000000, 22.000000)">
                    <g id="Capa_1">
                        <g id="Group">
                            <path d="M18.324362,25 L0.518535807,25 C0.415280857,25 0.316548022,24.9575758 0.24570156,24.8825758 C0.174855098,24.8075758 0.13717081,24.7068182 0.141692924,24.6030303 L0.989589411,6.70530303 C0.999387326,6.5030303 1.16444451,6.34469697 1.36643229,6.34469697 L17.4764656,6.34469697 C17.6776997,6.34469697 17.8435105,6.5030303 17.8533084,6.70530303 L18.7012049,24.6030303 C18.705727,24.7068182 18.6687964,24.8075758 18.5971963,24.8825758 C18.5255961,24.9575758 18.4268633,25 18.324362,25 L18.324362,25 Z M0.913467149,24.2424242 L17.928677,24.2424242 L17.1169574,7.10227273 L1.72518672,7.10227273 L0.913467149,24.2424242 L0.913467149,24.2424242 Z" id="Shape"></path>
                            <path d="M13.4947436,8.61742424 C13.2867264,8.61742424 13.1179008,8.44772727 13.1179008,8.23863636 L13.1179008,4.47348485 C13.1179008,2.425 11.4597921,0.757575758 9.42107208,0.757575758 C7.38235208,0.757575758 5.7242434,2.425 5.7242434,4.47348485 L5.7242434,8.23863636 C5.7242434,8.44772727 5.55541779,8.61742424 5.34740051,8.61742424 C5.13938324,8.61742424 4.97055763,8.44772727 4.97055763,8.23863636 L4.97055763,4.47348485 C4.97055763,2.00681818 6.96707123,0 9.42107208,0 C11.8750729,0 13.8715865,2.00681818 13.8715865,4.47348485 L13.8715865,8.23863636 C13.8715865,8.44772727 13.7035146,8.61742424 13.4947436,8.61742424 L13.4947436,8.61742424 Z" id="Shape"></path>
                        </g>
                    </g>
                </g>
            </g>
        </g>
    </g>
</svg>