<?xml version="1.0" encoding="UTF-8" standalone="no"?>
<svg width="24px" height="24px" viewBox="0 0 24 24" version="1.1" xmlns="http://www.w3.org/2000/svg" xmlns:xlink="http://www.w3.org/1999/xlink">
    <!-- Generator: Sketch 3.8.3 (29802) - http://www.bohemiancoding.com/sketch -->
    <title>grid</title>
    <desc>Created with Sketch.</desc>
    <defs></defs>
    <g id="Page-1" stroke="none" stroke-width="1" fill="none" fill-rule="evenodd">
        <g id="Карточка-товаров+выбор-любого-товара-(категория-товаров)" transform="translate(-613.000000, -595.000000)" fill="#FFFFFF">
            <g id="Group-7" transform="translate(597.000000, 579.000000)">
                <g id="grid" transform="translate(16.000000, 16.000000)">
                    <path d="M22,24 L16,24 C14.8954305,24 14,23.1045695 14,22 L14,16 C14,14.8954305 14.8954305,14 16,14 L22,14 C23.1045695,14 24,14.8954305 24,16 L24,22 C24,23.1045695 23.1045695,24 22,24 L22,24 Z M22,16 L16,16 L16,22 L22,22 L22,16 L22,16 Z M22,10 L16,10 C14.8954305,10 14,9.1045695 14,8 L14,2 C14,0.8954305 14.8954305,0 16,0 L22,0 C23.1045695,0 24,0.8954305 24,2 L24,8 C24,9.1045695 23.1045695,10 22,10 L22,10 Z M22,2 L16,2 L16,8 L22,8 L22,2 L22,2 Z M8,24 L2,24 C0.8954305,24 0,23.1045695 0,22 L0,16 C0,14.8954305 0.8954305,14 2,14 L8,14 C9.1045695,14 10,14.8954305 10,16 L10,22 C10,23.1045695 9.1045695,24 8,24 L8,24 Z M8,16 L2,16 L2,22 L8,22 L8,16 L8,16 Z M8,10 L2,10 C0.8954305,10 0,9.1045695 0,8 L0,2 C0,0.8954305 0.8954305,0 2,0 L8,0 C9.1045695,0 10,0.8954305 10,2 L10,8 C10,9.1045695 9.1045695,10 8,10 L8,10 Z M8,2 L2,2 L2,8 L8,8 L8,2 L8,2 Z"></path>
                </g>
            </g>
        </g>
    </g>
</svg>