<?xml version="1.0" encoding="UTF-8" standalone="no"?>
<svg width="120px" height="80px" viewBox="0 0 120 80" version="1.1" xmlns="http://www.w3.org/2000/svg" xmlns:xlink="http://www.w3.org/1999/xlink">
    <!-- Generator: Sketch 3.8.3 (29802) - http://www.bohemiancoding.com/sketch -->
    <title>Group</title>
    <desc>Created with Sketch.</desc>
    <defs></defs>
    <g id="Page-1" stroke="none" stroke-width="1" fill="none" fill-rule="evenodd">
        <g id="Главная" transform="translate(-526.000000, -1040.000000)" fill="#000000">
            <g id="Group-12" transform="translate(45.000000, 658.000000)">
                <g id="Group-14" transform="translate(481.000000, 382.000000)">
                    <g id="Group">
                        <path d="M40.8504669,79.3533703 C40.7493201,79.3533703 40.647568,79.3417484 40.5469053,79.3185047 L1.79850436,70.3928848 C1.11956142,70.2369576 0.670710843,69.5900052 0.761749091,68.8985021 L7.70389785,16.3219913 C7.75466797,15.9375001 7.9687803,15.592717 8.29130321,15.3767434 C8.61421954,15.1598012 9.01378294,15.0929753 9.38954261,15.1917615 L43.1792659,24.1173813 C43.7908684,24.2791194 44.2086818,24.8437501 44.184984,25.4761752 L42.2015129,78.052686 C42.1865316,78.4546101 41.992349,78.8303849 41.6722322,79.0744448 C41.4340135,79.2574897 41.1449187,79.3533703 40.8504669,79.3533703 L40.8504669,79.3533703 Z M3.60327352,68.0346074 L39.5609202,76.3171488 L41.4422457,26.4553202 L10.183736,18.1989282 L3.60327352,68.0346074 L3.60327352,68.0346074 Z" id="Shape"></path>
                        <path d="M41.0553635,79.3533703 C40.7511965,79.3533703 40.4519932,79.2507102 40.2098097,79.0560433 C39.8757103,78.7887397 39.6882769,78.3780991 39.7043175,77.9500258 L41.6877886,25.3735149 C41.7095191,24.7972623 42.0950091,24.2975207 42.6475033,24.13094 L47.3442646,22.7101626 C48.057014,22.4912835 48.8129218,22.89805 49.0294099,23.6127969 C49.245898,24.3275438 48.8414923,25.0819988 48.1267453,25.2979726 L44.3534712,26.4398243 L42.4751421,76.230953 L77.3998923,67.0573992 L74.5840631,17.2982309 L54.7769241,23.2873838 C54.0636602,23.5043259 53.3072682,23.0985279 53.0917485,22.3847495 C52.8752603,21.6700026 53.2796056,20.9155476 53.9943525,20.6995739 L75.4454759,14.2135847 C75.8420732,14.0954287 76.2730824,14.1622546 76.6115702,14.3995351 C76.9510266,14.6368155 77.1631566,15.0174328 77.18637,15.4309788 L80.1615767,68.0074896 C80.1978649,68.6495996 79.7775697,69.2277893 79.1552532,69.3914643 L41.3986937,79.3088197 C41.2853499,79.338843 41.1700994,79.3533703 41.0553635,79.3533703 L41.0553635,79.3533703 Z" id="Shape"></path>
                        <path d="M118.552559,78.3616348 C118.453773,78.3616348 118.354502,78.3509814 118.256231,78.3287061 L78.5155947,69.4030862 C77.9262977,69.2704028 77.4962874,68.7638818 77.4623599,68.1605113 L74.4871533,15.5840005 C74.4619726,15.1452738 74.6522812,14.7220429 74.996126,14.4489283 C75.3399708,14.1738766 75.7955554,14.0857439 76.2173336,14.2106793 L110.007556,24.1280346 C110.502425,24.2723399 110.871451,24.6868544 110.95913,25.194344 L119.84598,76.5544292 C119.896856,76.6967975 119.924427,76.8498192 119.924427,77.0096204 C119.924427,77.7563275 119.31915,78.3616348 118.572383,78.3616348 C118.565149,78.3606663 118.559399,78.3606663 118.552559,78.3616348 L118.552559,78.3616348 Z M80.1039515,66.9886364 L116.875615,75.2469654 L108.438146,26.4853434 L77.2948715,17.3447184 L80.1039515,66.9886364 L80.1039515,66.9886364 Z" id="Shape"></path>
                        <path d="M41.0553635,72.7966813 C40.9483451,72.7966813 40.8417505,72.7840909 40.7367297,72.7589101 L8.00210241,64.8250259 C7.33587094,64.6632878 6.89613025,64.0289256 6.97843696,63.348076 L11.9371146,22.5087165 C11.9846161,22.1203512 12.1976541,21.7707258 12.5221442,21.5518466 C12.8460441,21.3319989 13.2499809,21.265173 13.6276321,21.3649276 L43.0417097,29.2068053 C43.4736268,29.0847753 44.5399362,28.7748579 47.1282606,27.9981276 C47.8401323,27.7802169 48.5965244,28.1889204 48.8115295,28.9046358 C49.0260504,29.6193827 48.6202221,30.3728694 47.9049909,30.5878744 C43.68385,31.8546617 43.4378228,31.9040547 43.3056237,31.9311725 C43.101726,31.9718491 42.8905644,31.9650697 42.6906314,31.9118027 L14.4339166,24.378874 L9.80785527,62.4803074 L41.0422888,70.0500388 L78.4690769,60.2198476 C78.6817214,60.1627066 78.9073194,60.1607697 79.1219312,60.2111312 L110.864218,67.6782025 L104.40922,29.70461 L75.8624116,22.094202 C73.7579396,22.7363119 63.0870674,25.9952867 54.5469376,28.5830966 C53.8311919,28.8000388 53.0767066,28.3961777 52.8607935,27.6814308 C52.6443054,26.9666839 53.0481361,26.2122289 53.7623685,25.9952867 C63.2792525,23.1111183 75.4421165,19.3950156 75.4421165,19.3950156 C75.6841789,19.3204417 75.9418582,19.3175362 76.1854036,19.3814567 L105.944733,27.315341 C106.456158,27.4518983 106.840649,27.8741607 106.929205,28.3952093 L113.871354,69.2345688 C113.947441,69.6810434 113.794419,70.1362346 113.464164,70.4471204 C113.134302,70.7570377 112.670485,70.8829416 112.229337,70.777376 L78.8303848,62.9200025 L41.3986938,72.7521306 C41.2863487,72.782154 41.170614,72.7966813 41.0553635,72.7966813 L41.0553635,72.7966813 Z" id="Shape"></path>
                        <path d="M32.4904463,61.0198218 C32.2720665,61.0198218 32.059528,61.0052944 31.8536478,60.9743027 C30.2875967,60.7331482 29.1463048,59.8092071 28.1394972,58.9937371 C27.5119297,58.4862474 26.9192732,58.006844 26.3458504,57.7995868 C24.6156702,57.1768466 23.212356,55.0790935 22.1881003,53.5469396 C21.9179516,53.1430785 21.6119082,52.684982 21.4729599,52.5338972 C21.1281314,52.1590909 20.9508974,51.7164901 20.8593598,51.2419292 C20.6109417,51.446281 20.3164899,51.6002711 19.9635352,51.678719 C18.4865399,52.0080061 17.2401213,50.6937629 16.4333526,49.6758781 C14.8997308,47.7418002 14.2581807,45.8377454 14.5264378,44.0160125 C14.8658185,41.7110021 16.5316243,40.4926395 16.7205557,40.3609247 C16.8865764,40.2456742 17.076885,40.1681948 17.2764246,40.1362346 C17.9296874,40.0297005 23.7517604,39.1319087 26.9221483,40.1885332 C29.265414,40.9691375 29.6595297,42.7869965 29.686708,44.0256974 C30.4503334,43.6305528 31.3186015,43.0562371 31.5307314,42.7463198 C32.4701079,40.9342718 37.8631541,37.5 38.7798315,37.5 C39.5265992,37.5 40.1318763,38.1053074 40.1318763,38.8520144 C40.1318763,39.5357696 39.6239024,40.1013687 38.9643898,40.1914384 C38.0176891,40.5536544 34.3998277,43.3061079 33.8913695,44.0605629 C33.258445,45.2827995 29.5162233,47.7079028 27.9085269,46.9970299 C26.8339702,46.5185949 26.9129175,45.3806172 26.9604189,44.7017045 C27.0489905,43.4320119 26.9478286,43.0465521 26.0669701,42.7530991 C24.0588026,42.0838713 19.9141421,42.4848269 18.0711024,42.7501936 C17.7950973,43.0184658 17.310337,43.5976239 17.1964938,44.4431171 C17.0560624,45.4890882 17.5117681,46.6842069 18.5523974,47.9965133 C18.8768875,48.4052168 19.1223397,48.6570246 19.2956997,48.8100463 C19.4182744,48.4652633 19.5320268,47.9858598 19.5973849,47.7088712 C19.8216209,46.7607178 20.0535748,45.7796356 21.0802214,45.565599 C21.3009921,45.5200799 22.0694752,45.4300101 22.6661114,46.2241734 C23.4588067,47.2817663 23.461682,48.612474 23.464648,49.6816888 C23.4655408,50.0380938 23.4665395,50.5659218 23.5227726,50.7702735 C23.7871709,51.0734114 24.0762657,51.5063272 24.4359543,52.0438401 C25.1115379,53.053977 26.3686553,54.9338195 27.262104,55.2563272 C28.2654615,55.6175746 29.0663738,56.2654956 29.8407284,56.8921098 C30.6532476,57.5506842 31.4207469,58.1714874 32.2653172,58.3012652 C33.3892518,58.4765622 35.8699677,57.3579542 37.2695291,56.508587 C37.9077047,56.1221588 38.7396693,56.3255421 39.1265515,56.9628096 C39.5140087,57.6000772 39.311594,58.4310431 38.6738118,58.8194083 C38.0292807,59.2106793 34.9213756,61.0198218 32.4904463,61.0198218 L32.4904463,61.0198218 Z" id="Shape"></path>
                        <path d="M58.2484827,43.0823863 C57.7012546,43.0823863 57.1075994,43.050426 56.4610707,42.9777892 C54.7381541,42.7869963 53.2500363,42.6223527 53.256392,40.8432333 C53.2568763,40.702802 53.2568763,40.695054 53.1982825,40.590457 C52.8307398,39.9405991 53.0593342,39.1154441 53.7096159,38.7483857 C54.3590199,38.3793903 55.1841445,38.6098914 55.5516569,39.2597493 C55.7473225,39.6055009 55.8494682,39.9192922 55.902826,40.182722 C56.1042723,40.2127452 56.3802622,40.2485794 56.7593964,40.2911931 C60.533639,40.7134554 61.6797885,39.5638558 62.3650871,38.8781636 C62.5127519,38.7299843 62.8822618,38.237022 63.2086434,37.8021693 C65.0893938,35.2937757 66.6574122,33.3664772 68.3798748,33.5805139 C68.8912082,33.5320893 70.3434918,32.1849173 70.820928,31.7413481 C71.4698175,31.1399147 71.795715,30.8377453 72.2223355,30.695377 C72.2572618,30.683755 72.2915826,30.6731017 72.3249956,30.6634167 L72.4020513,30.6362989 L72.4039277,30.6411414 C73.6813683,30.3157281 74.0760893,31.272598 74.1448219,31.4759813 C74.21304,31.6793645 74.474563,32.674974 73.2629799,33.1921487 L73.2649471,33.1979596 L73.2276601,33.21055 C73.0934938,33.3219266 72.8480113,33.5495221 72.6600937,33.7238506 C71.1516678,35.1233212 69.6709045,36.362022 68.199251,36.2777633 C67.5115916,36.5702478 65.9634879,38.6350722 65.3722237,39.424393 C64.9010524,40.0519756 64.5610816,40.5061982 64.2768595,40.7899663 C63.4981316,41.5686338 61.9839553,43.0823863 58.2484827,43.0823863 L58.2484827,43.0823863 Z" id="Shape"></path>
                        <path d="M45.3152743,38.4036028 C45.0706999,38.4036028 44.822766,38.3367769 44.5995287,38.197314 C43.9666193,37.8012009 43.774404,36.9673295 44.1705171,36.3349044 C44.4397578,35.9039256 45.377742,34.9325284 48.1863378,35.1514075 C48.9311382,35.211454 49.4860235,35.8632489 49.4264915,36.6070505 C49.366899,37.3518207 48.7112603,37.8951445 47.9708484,37.8476885 C46.8798424,37.7595557 46.4217459,37.9212939 46.3031359,37.9764979 C46.0434894,38.2544551 45.682817,38.4036028 45.3152743,38.4036028 L45.3152743,38.4036028 Z" id="Shape"></path>
                        <path d="M61.847398,59.3530475 C61.2803158,59.3530475 60.7535169,58.993737 60.5650847,58.4281379 C60.5123322,58.2693053 60.0735751,56.8262525 61.0014507,55.2030604 C61.1917593,54.8708678 61.2702071,53.6389463 60.8736098,52.8941761 C60.6643551,52.5 60.4479577,52.4845041 60.3312544,52.4757877 C58.5836111,52.3556946 57.3143724,53.2467071 56.9167763,53.841361 C56.3192775,54.7381844 54.0403559,57.6775568 49.7997846,57.8780345 C46.3147276,58.0436466 44.3060758,57.8819085 44.2232698,57.8751291 C43.4794681,57.8141141 42.9264593,57.1613506 42.9874742,56.417549 C43.0484589,55.6727788 43.7012223,55.129455 44.445024,55.180785 C44.4634859,55.1817536 46.3810693,55.3318698 49.6719739,55.1778795 C52.646666,55.0364798 54.2471288,52.9716553 54.6670305,52.3421357 C55.5831934,50.967846 57.7961668,49.5732179 60.5287965,49.7795066 C61.7030927,49.8657024 62.6735215,50.5204027 63.2604274,51.6235148 C64.0163351,53.0433237 64.0003551,54.8999223 63.5625968,56.0805138 C64.0633373,55.933303 64.559205,55.7889978 64.9339811,55.6834322 C65.0976259,55.2892561 65.3949226,54.834065 65.9653945,54.2636233 C66.3557269,53.8733212 66.7091961,53.4345944 67.0511342,53.0094266 C67.8781354,51.9828254 68.7334044,50.9213583 70.0310926,50.9213583 C70.6795885,50.9213583 73.0741541,50.6279054 74.4315256,50.4429234 C75.1762352,50.3344523 75.852303,50.8593749 75.9534498,51.5993025 C76.0547177,52.3392302 75.536514,53.0210484 74.7965864,53.1217715 C74.4305268,53.172133 71.2771177,53.5982695 70.1333592,53.6244186 C69.9076401,53.7745349 69.4597733,54.3304492 69.1570893,54.7062239 C68.788548,55.163352 68.3706437,55.6824636 67.8772578,56.1754259 C67.497609,56.5550746 67.4283013,56.7264977 67.4283013,56.7264977 C67.3202842,57.4964486 66.8748082,57.973915 66.1034348,58.1666449 C65.5915869,58.2944857 63.1384276,59.025697 62.2362473,59.2959062 C62.1069235,59.3346462 61.9762377,59.3530475 61.847398,59.3530475 L61.847398,59.3530475 Z" id="Shape"></path>
                        <path d="M102.121673,61.2813146 C101.447088,61.2813146 100.770143,61.1670325 100.156058,60.9326576 C97.8670281,60.0600465 95.7320184,58.770984 94.4448626,57.4838584 C92.8947613,55.9352402 91.2139741,54.9347882 90.1627369,54.9347882 C89.6101518,54.9347882 89.1293562,55.133329 88.5728971,55.3628615 C87.7438984,55.7047391 86.7138773,56.12797 85.3444904,55.8877841 C83.0781592,55.48586 80.93295,52.3179235 80.5257296,51.6874354 C80.1214145,51.0598527 80.3015237,50.2240444 80.9280774,49.8192148 C81.5537835,49.4143853 82.3910144,49.5925877 82.797327,50.2201704 C83.669938,51.5673423 85.0911997,53.0965908 85.816146,53.2244318 C86.3802621,53.3261234 86.7971676,53.1701962 87.541968,52.8622158 C88.2251784,52.5813533 89.0750904,52.2307592 90.1627369,52.2307592 C92.7349904,52.2307592 95.3508866,54.5667613 96.355727,55.5720556 C97.5706999,56.7855758 99.6132792,57.8315468 101.119738,58.4068309 C101.964777,58.7274017 103.020887,58.5608211 103.51388,58.221849 C103.545325,58.1995738 103.627133,58.1404958 103.673136,58.0785123 C103.074638,57.1303589 99.8253183,55.013236 98.5701833,54.1948605 C97.4902848,53.490767 97.0017412,53.1682593 96.7353757,52.9028925 C96.6070203,52.7740831 96.1479551,52.4283315 95.7436401,52.1232566 C94.4439544,51.1441115 92.4803375,49.6632876 91.2188467,48.0236311 C89.373416,45.6246771 90.188311,44.4159994 91.2667265,43.290612 C91.4546745,43.0949767 91.6672886,42.8760975 91.8779356,42.6049199 C93.0623707,41.0814824 95.1654506,41.4543518 97.1983147,41.8165676 C98.257875,42.004455 99.3527549,42.2020273 100.131846,42.0945247 C100.395276,42.059659 100.478566,42.000581 100.479565,41.9996125 C100.510496,41.8601497 100.356597,41.2654958 100.281024,40.9778538 C99.8403905,40.9245868 99.2175899,40.8800361 98.7541363,40.8471074 C96.474337,40.6853694 95.1189328,40.552686 94.4182593,39.782735 C94.2007724,39.6858859 93.6240961,39.5967846 93.2706269,39.5425491 C92.2038332,39.3788739 90.7432871,39.1551524 90.4735319,37.8079804 C90.3927234,37.4031509 89.6648715,36.2167485 88.9215844,35.7218492 C88.6165397,35.5174975 88.340913,35.4419551 87.6921144,35.274406 C87.0538481,35.1097624 86.1797237,34.8850724 84.9144801,34.3785512 C82.436019,33.3868156 80.1610924,32.2527118 80.0656657,32.2052558 C79.3974367,31.8711261 79.126713,31.0595301 79.4608124,30.3912707 C79.7954262,29.7239799 80.6075671,29.4537707 81.2744039,29.7859633 C81.2971029,29.7975853 83.548362,30.9200672 85.918806,31.8682206 C87.0227958,32.3098528 87.7680805,32.5016142 88.3670927,32.6565729 C89.0944299,32.8434918 89.7230113,33.0052299 90.4217782,33.4710745 C91.4731062,34.1722624 92.5418066,35.5727015 92.9728156,36.7484505 C93.1843706,36.7939696 93.4681991,36.8375518 93.6807226,36.8704805 C94.6042098,37.0118803 95.6424632,37.1716814 96.3053352,37.8389722 C96.7765368,37.9958679 98.1740703,38.0956226 98.945928,38.1498581 C101.188047,38.3096592 102.808273,38.4249098 102.808273,39.9977403 C102.816989,40.0074252 102.851916,40.1226758 102.886691,40.2553591 C103.098851,41.0601757 103.453773,42.4073477 102.696896,43.5375776 C102.236409,44.2242382 101.493606,44.6406897 100.48928,44.77531 C99.2902872,44.9322057 97.9871211,44.7026731 96.7256304,44.4789516 C95.888914,44.3288353 94.333486,44.0547522 93.9959969,44.2804108 C93.7374399,44.6184144 93.463841,44.9060565 93.2192666,45.1617383 C93.0943009,45.2924846 92.9325628,45.4610022 92.8492422,45.5675363 C92.8938836,45.6808499 93.0187282,45.9287837 93.3620889,46.3752584 C94.4003423,47.7243674 96.1881176,49.0725079 97.3711605,49.9644888 C97.9595494,50.408058 98.3847174,50.7276602 98.6462404,50.989153 C98.7779553,51.1024665 99.4520255,51.5421618 100.046679,51.9295585 C104.446507,54.7972625 106.409156,56.3536287 106.409156,58.0010332 C106.409156,58.9743673 105.925878,59.8440729 105.04788,60.4484117 C104.2552,60.994641 103.191856,61.2813146 102.121673,61.2813146 L102.121673,61.2813146 Z" id="Shape"></path>
                        <path d="M49.5301503,52.0186596 C48.5844181,52.0186596 47.6885028,51.9082515 46.8953081,51.6874354 C44.3898804,50.9920583 43.7540657,49.5034865 43.598078,48.6773631 C43.2431257,46.7994576 44.5772231,44.9447959 47.1670305,43.7157799 C47.9819558,43.3283832 48.9567124,43.6751033 49.3441999,44.4905733 C49.7310821,45.3060433 49.3838475,46.2813146 48.5683473,46.6677427 C47.1882465,47.3234116 46.8270597,47.9752066 46.8115941,48.1011105 C46.9902202,48.389721 48.6880468,49.0802557 51.3871728,48.570829 C54.0863592,48.0604339 55.4152207,46.7955836 55.4640993,46.4014075 C55.4412791,46.398502 55.1546662,46.1224819 54.3803267,45.9307205 C53.5043259,45.7128098 52.9711713,44.8256714 53.1890516,43.9501549 C53.4070228,43.0727014 54.2916492,42.5400309 55.1696474,42.7579416 C57.1225808,43.2441245 58.4015044,44.3617639 58.6780088,45.8261234 C59.1743608,48.4507361 56.3633135,50.9562242 51.9944171,51.7823476 C51.1590627,51.9402118 50.3271888,52.0186596 49.5301503,52.0186596 L49.5301503,52.0186596 Z" id="Shape"></path>
                        <path d="M51.1383308,48.3877841 C50.2356662,48.3877841 49.5039708,47.6565728 49.5039708,46.7539385 L49.5039708,16.2755036 C49.5039708,15.3728694 50.2356663,14.6416581 51.1383308,14.6416581 C52.0409046,14.6416581 52.7726304,15.3728694 52.7726304,16.2755036 L52.7726304,46.7539385 C52.7726304,47.6565728 52.0409047,48.3877841 51.1383308,48.3877841 L51.1383308,48.3877841 Z" id="Shape"></path>
                        <path d="M51.1383308,17.0745093 C46.4410854,17.0745093 42.619417,13.252841 42.619417,8.55565597 C42.619417,3.85847098 46.4410854,0.0368026116 51.1383308,0.0368026116 C55.8354855,0.0368026116 59.6571539,3.85847098 59.6571539,8.55565597 C59.6571539,13.252841 55.8354855,17.0745093 51.1383308,17.0745093 L51.1383308,17.0745093 Z M51.1383308,2.74083164 C47.9320482,2.74083164 45.3235065,5.34897987 45.3235065,8.55565597 C45.3235065,11.7623321 47.9320482,14.3704803 51.1383308,14.3704803 C54.3445228,14.3704803 56.9530947,11.7623321 56.9530947,8.55565597 C56.9530947,5.34897987 54.3445228,2.74083164 51.1383308,2.74083164 L51.1383308,2.74083164 Z" id="Shape"></path>
                    </g>
                </g>
            </g>
        </g>
    </g>
</svg>