<?xml version="1.0" encoding="UTF-8" standalone="no"?>
<svg width="27px" height="27px" viewBox="0 0 27 27" version="1.1" xmlns="http://www.w3.org/2000/svg" xmlns:xlink="http://www.w3.org/1999/xlink">
    <!-- Generator: Sketch 3.8.3 (29802) - http://www.bohemiancoding.com/sketch -->
    <title>search</title>
    <desc>Created with Sketch.</desc>
    <defs></defs>
    <g id="Page-1" stroke="none" stroke-width="1" fill="none" fill-rule="evenodd">
        <g id="Главная" transform="translate(-1093.000000, -21.000000)" fill="#000000" stroke="#000000">
            <g id="menu">
                <g id="search" transform="translate(1094.000000, 22.000000)">
                    <g id="Capa_1">
                        <path d="M24.3886792,24.1853774 L17.379717,16.8962264 C19.1674528,15.1033019 20.275,12.6316038 20.275,9.90566038 C20.275,4.44339623 15.8316038,0 10.3693396,0 C4.90707547,0 0.463679245,4.44339623 0.463679245,9.90566038 C0.463679245,15.3679245 4.90707547,19.8113208 10.3693396,19.8113208 C12.7669811,19.8113208 14.9674528,18.9542453 16.6825472,17.5320755 L23.7084906,24.8391509 C23.8009434,24.9358491 23.9245283,24.9839623 24.0485849,24.9839623 C24.1665094,24.9839623 24.2839623,24.9400943 24.3754717,24.8523585 C24.5632075,24.6716981 24.5688679,24.3731132 24.3886792,24.1853774 L24.3886792,24.1853774 Z M10.3693396,18.8679245 C5.42735849,18.8679245 1.40707547,14.8476415 1.40707547,9.90566038 C1.40707547,4.96367925 5.42735849,0.943396226 10.3693396,0.943396226 C15.3113208,0.943396226 19.3316038,4.96367925 19.3316038,9.90566038 C19.3316038,14.8476415 15.3108491,18.8679245 10.3693396,18.8679245 L10.3693396,18.8679245 Z" id="Shape"></path>
                    </g>
                </g>
            </g>
        </g>
    </g>
</svg>