<?xml version="1.0" encoding="UTF-8" standalone="no"?>
<svg width="124px" height="76px" viewBox="0 0 124 76" version="1.1" xmlns="http://www.w3.org/2000/svg" xmlns:xlink="http://www.w3.org/1999/xlink">
    <!-- Generator: Sketch 3.8.3 (29802) - http://www.bohemiancoding.com/sketch -->
    <title>VK</title>
    <desc>Created with Sketch.</desc>
    <defs></defs>
    <g id="Page-1" stroke="none" stroke-width="1" fill="none" fill-rule="evenodd">
        <g id="Главная" transform="translate(-205.000000, -1043.000000)" stroke-width="4" stroke="#000000">
            <g id="Group-12" transform="translate(45.000000, 658.000000)">
                <g id="Group-3" transform="translate(74.000000, 0.000000)">
                    <g id="1468189069_vkontakte" transform="translate(85.000000, 385.000000)">
                        <g id="Vkontakte">
                            <path d="M67.0767152,73.2608311 C71.0712356,73.2608311 71.0712356,67.5870284 71.0712356,65.3860182 C71.0712356,61.4486117 75.0657559,57.5112052 79.0602763,57.5112052 C83.0547966,57.5112052 89.905399,64.2638573 95.0383576,69.3234247 C99.032878,73.2608311 99.032878,73.2608311 103.027398,73.2608311 L115.010959,73.2608311 C115.010959,73.2608311 123,72.9615883 123,65.3860182 C123,62.9251391 120.263754,58.7514883 111.016439,49.6363923 C103.027398,41.7615793 98.9290204,45.8289202 111.016439,29.9493599 C118.37834,20.2790895 123.734992,11.5183601 122.816252,8.99054515 C121.937458,6.57691498 101.461546,2.73400625 99.032878,6.32492096 C91.0438373,18.1371404 89.5778483,21.0311342 87.0493169,26.0119534 C83.0547966,33.8867663 82.6593391,37.8241728 79.0602763,37.8241728 C75.4292573,37.8241728 75.0657559,30.1816668 75.0657559,26.0119534 C75.0657559,12.9948875 76.9791312,3.78923119 71.0712356,2.38751448 L59.0876745,2.38751448 C52.6564968,2.38751448 47.1041135,6.32492096 47.1041135,6.32492096 C47.1041135,6.32492096 42.1469138,10.1363304 43.1095932,10.2623274 C44.2999602,10.4198237 51.0986339,8.63224116 51.0986339,14.1997339 L51.0986339,22.0745469 C51.0986339,22.0745469 51.1345845,37.8241728 47.1041135,37.8241728 C43.1095932,37.8241728 35.1205525,22.0745469 27.1315118,10.2623274 C23.9958134,5.62800002 23.1369915,6.32492096 19.1424711,6.32492096 C14.8603453,6.32492096 11.157425,6.49029204 7.15891012,6.49029204 C3.16438978,6.49029204 2.65309117,8.99841996 3.16438978,10.2623274 C11.1534305,29.9493599 16.8935562,42.3128162 32.0727335,57.8891962 C45.9936369,72.1780444 55.2928802,72.9379638 63.0821949,73.2608311 C65.0794551,73.3435167 63.0821949,73.2608311 67.0767152,73.2608311 L67.0767152,73.2608311 Z" id="VK"></path>
                        </g>
                    </g>
                </g>
            </g>
        </g>
    </g>
</svg>